<svg xmlns="http://www.w3.org/2000/svg" version="1.1" xmlns:xlink="http://www.w3.org/1999/xlink" xmlns:svgjs="http://svgjs.dev/svgjs" width="1500" height="181" viewBox="0 0 1500 181"><g transform="matrix(1,0,0,1,-0.9090909090909918,-0.2661589185624962)"><svg viewBox="0 0 396 48" data-background-color="#ffffff" preserveAspectRatio="xMidYMid meet" height="181" width="1500" xmlns="http://www.w3.org/2000/svg" xmlns:xlink="http://www.w3.org/1999/xlink"><g id="tight-bounds" transform="matrix(1,0,0,1,0.2400000000000091,0.07058358061325976)"><svg viewBox="0 0 395.52 47.858832838773495" height="47.858832838773495" width="395.52"><g><svg viewBox="0 0 395.52 47.858832838773495" height="47.858832838773495" width="395.52"><g><svg viewBox="0 0 395.52 47.858832838773495" height="47.858832838773495" width="395.52"><g id="textblocktransform"><svg viewBox="0 0 395.52 47.858832838773495" height="47.858832838773495" width="395.52" id="textblock"><g><svg viewBox="0 0 395.52 47.858832838773495" height="47.858832838773495" width="395.52"><g transform="matrix(1,0,0,1,0,0)"><svg width="395.52" viewBox="1 -35.2 303.28 36.7" height="47.858832838773495" data-palette-color="#000000"><path d="M1-31L18.3-31Q18.3-28 18.3-24.98 18.3-21.95 18.3-18.93 18.3-15.9 18.3-12.85L18.3-12.85Q18.3-9.65 18.3-6.45 18.3-3.25 18.3 0L18.3 0 1 0Q1-4.95 1-9.9 1-14.85 1-19.8L1-19.8Q1-22.6 1-25.4 1-28.2 1-31L1-31ZM18.25-11.9L18.25-11.9 20.95-25.35Q21.4-27.5 22.73-28.93 24.05-30.35 25.85-31.1 27.65-31.85 29.55-32.02 31.45-32.2 33.05-31.88 34.65-31.55 35.6-30.8L35.6-30.8 31.8-12.2Q30.35-13.4 28.28-13.85 26.2-14.3 24.1-14.18 22-14.05 20.4-13.45 18.8-12.85 18.25-11.9ZM57.55-11.3L57.55-11.3Q60.2-11.3 61.65-12.25 63.1-13.2 63.15-14.85L63.15-14.85 78.6-9.8Q77.7-6.65 74.77-4.08 71.85-1.5 67.4 0 62.95 1.5 57.45 1.5L57.45 1.5Q52.75 1.5 48.67 0.45 44.6-0.6 41.52-2.73 38.45-4.85 36.7-8.05 34.95-11.25 34.95-15.5L34.95-15.5Q34.95-19.75 36.7-22.95 38.45-26.15 41.52-28.28 44.6-30.4 48.7-31.45 52.8-32.5 57.45-32.5L57.45-32.5Q62.2-32.5 66.17-31.45 70.15-30.4 73.02-28.23 75.9-26.05 77.47-22.73 79.05-19.4 79.05-14.85L79.05-14.85 51.8-14.85Q51.8-14.85 51.77-14.85 51.75-14.85 51.75-14.85 51.75-14.85 51.75-14.8L51.75-14.8Q51.75-14.05 52.15-13.4 52.55-12.75 53.27-12.28 54-11.8 55.07-11.55 56.15-11.3 57.55-11.3ZM57.45-19.85L57.45-19.85Q55-19.85 53.4-18.98 51.8-18.1 51.8-16.5L51.8-16.5Q51.8-16.45 51.8-16.43 51.8-16.4 51.8-16.4 51.8-16.4 51.82-16.4 51.85-16.4 51.85-16.4L51.85-16.4 63-16.4Q63.05-16.4 63.05-16.43 63.05-16.45 63.05-16.5L63.05-16.5Q63.05-17.3 62.62-17.93 62.2-18.55 61.45-18.98 60.7-19.4 59.67-19.63 58.65-19.85 57.45-19.85ZM82.9-29.2L82.9-29.2 82.9-17.25Q85.15-18.7 88.15-19.45 91.15-20.2 94.1-20.2L94.1-20.2Q96-20.2 97.72-19.85 99.45-19.5 100.77-18.78 102.1-18.05 102.87-16.93 103.65-15.8 103.65-14.25L103.65-14.25Q103.65-14.2 103.65-14.13 103.65-14.05 103.65-13.98 103.65-13.9 103.65-13.8L103.65-13.8Q102.9-14.8 101.72-15.6 100.55-16.4 99.07-16.95 97.6-17.5 95.95-17.78 94.3-18.05 92.55-18.05L92.55-18.05Q89.85-18.05 87.75-17.53 85.65-17 84.12-16.05 82.6-15.1 81.6-13.85 80.6-12.6 80.1-11.2 79.6-9.8 79.6-8.35L79.6-8.35Q79.6-5.95 80.6-4.15 81.6-2.35 83.32-1.15 85.05 0.05 87.22 0.68 89.4 1.3 91.75 1.3L91.75 1.3Q93.7 1.3 95.67 0.93 97.65 0.55 99.45-0.35L99.45-0.35Q100.5-2.8 101.57-5.25 102.65-7.7 103.7-10.15L103.7-10.15Q103.1-8.7 101.95-8.35 100.8-8 99.9-8L99.9-8Q98.05-8 97.05-8.78 96.05-9.55 96.05-10.5L96.05-10.5Q96.05-11.45 97.02-12.2 98-12.95 99.9-12.95L99.9-12.95Q100.75-12.95 101.6-12.73 102.45-12.5 103.05-11.95 103.65-11.4 103.65-10.5L103.65-10.5Q103.65-7.9 103.65-5.28 103.65-2.65 103.65 0L103.65 0Q105.4 0 107.15 0 108.9 0 110.65 0 112.4 0 114.15 0 115.9 0 117.65 0 119.4 0 121.15 0L121.15 0Q121.15-4.85 121.15-9.7 121.15-14.55 121.15-19.4L121.15-19.4Q121.15-22.7 119.35-25.15 117.55-27.6 114.47-29.25 111.4-30.9 107.5-31.7 103.6-32.5 99.4-32.5L99.4-32.5Q95.1-32.5 90.82-31.68 86.55-30.85 82.9-29.2ZM145.09 1.5L145.09 1.5Q140.39 1.5 136.32 0.45 132.24-0.6 129.17-2.73 126.09-4.85 124.34-8.05 122.59-11.25 122.59-15.5L122.59-15.5Q122.59-17.7 123.07-19.6 123.54-21.5 124.44-23.13 125.34-24.75 126.62-26.1 127.89-27.45 129.49-28.5L129.49-28.5Q131.54-29.85 133.99-30.73 136.44-31.6 139.27-32.05 142.09-32.5 145.09-32.5L145.09-32.5Q150.84-32.5 155.47-30.93 160.09-29.35 163.12-26.2 166.14-23.05 166.89-18.3L166.89-18.3 150.84-15.45Q150.84-16.8 149.99-17.65 149.14-18.5 147.84-18.88 146.54-19.25 145.09-19.25L145.09-19.25Q143.49-19.25 142.17-18.82 140.84-18.4 140.09-17.57 139.34-16.75 139.34-15.5L139.34-15.5Q139.34-14.55 139.77-13.85 140.19-13.15 140.99-12.68 141.79-12.2 142.84-11.98 143.89-11.75 145.09-11.75L145.09-11.75Q146.49-11.75 147.82-12.1 149.14-12.45 149.99-13.28 150.84-14.1 150.84-15.45L150.84-15.45Q155.04-14.95 158.89-14.43 162.74-13.9 166.94-13.35L166.94-13.35Q166.34-8.5 163.37-5.18 160.39-1.85 155.67-0.18 150.94 1.5 145.09 1.5ZM199.04-17.4L185.84-17.4Q186.44-19.7 187.02-21.95 187.59-24.2 188.17-26.48 188.74-28.75 189.29-31L189.29-31 199.04-31 199.04-17.4ZM168.69-13.05L168.69-13.05Q168.69-17.35 168.69-22.1 168.69-26.85 168.69-31.1L168.69-31.1 185.79-35.2Q185.79-32.75 185.79-30.2 185.79-27.65 185.79-25.1L185.79-25.1Q185.79-23.25 185.79-21.4 185.79-19.55 185.79-17.75L185.79-17.75Q185.79-17.7 185.79-17.7 185.79-17.7 185.79-17.65L185.79-17.65Q185.79-16.7 186.22-16 186.64-15.3 187.42-14.83 188.19-14.35 189.24-14.1 190.29-13.85 191.59-13.85L191.59-13.85Q193.04-13.85 194.54-14.3 196.04-14.75 197.27-15.55 198.49-16.35 199.04-17.4L199.04-17.4 199.04-2.2Q196.89-0.5 193.49 0.33 190.09 1.15 186.69 1.15L186.69 1.15Q181.54 1.15 177.47-0.53 173.39-2.2 171.04-5.38 168.69-8.55 168.69-13.05ZM218.34 0L201.04 0Q201.04-2.3 201.04-4.58 201.04-6.85 201.04-9.13 201.04-11.4 201.04-13.65L201.04-13.65Q201.04-14.6 201.04-15.55 201.04-16.5 201.04-17.45L201.04-17.45Q203.94-17.45 206.81-17.45 209.69-17.45 212.59-17.45 215.49-17.45 218.34-17.45L218.34-17.45Q218.34-14.55 218.34-11.65 218.34-8.75 218.34-5.83 218.34-2.9 218.34 0L218.34 0ZM201.04-17.45L201.04-17.45Q201.04-20.85 201.04-24.25 201.04-27.65 201.04-31L201.04-31 218.34-31Q218.34-29.35 218.34-27.7 218.34-26.05 218.34-24.4 218.34-22.75 218.34-21.1L218.34-21.1Q218.34-21.1 218.31-21.08 218.29-21.05 218.29-21.05L218.29-21.05Q213.99-20.15 209.66-19.25 205.34-18.35 201.04-17.45ZM244.84-31L262.24-31Q261.04-27.1 259.84-23.23 258.64-19.35 257.46-15.5 256.29-11.65 255.09-7.78 253.89-3.9 252.69 0L252.69 0 228.84 0Q227.89-3.1 226.94-6.2 225.99-9.3 225.04-12.4 224.09-15.5 223.11-18.6 222.14-21.7 221.19-24.8 220.24-27.9 219.29-31L219.29-31 237.64-31Q237.94-29.25 238.21-27.53 238.49-25.8 238.79-24.05 239.09-22.3 239.36-20.55 239.64-18.8 239.94-17.05 240.24-15.3 240.51-13.58 240.79-11.85 241.09-10.1L241.09-10.1Q241.14-9.85 241.16-9.73 241.19-9.6 241.24-9.6 241.29-9.6 241.31-9.73 241.34-9.85 241.39-10.1L241.39-10.1Q241.69-11.85 241.96-13.58 242.24-15.3 242.54-17.05 242.84-18.8 243.11-20.55 243.39-22.3 243.69-24.05 243.99-25.8 244.26-27.53 244.54-29.25 244.84-31L244.84-31ZM282.78-11.3L282.78-11.3Q285.43-11.3 286.88-12.25 288.33-13.2 288.38-14.85L288.38-14.85 303.83-9.8Q302.93-6.65 300.01-4.08 297.08-1.5 292.63 0 288.18 1.5 282.68 1.5L282.68 1.5Q277.98 1.5 273.91 0.45 269.83-0.6 266.76-2.73 263.68-4.85 261.93-8.05 260.18-11.25 260.18-15.5L260.18-15.5Q260.18-19.75 261.93-22.95 263.68-26.15 266.76-28.28 269.83-30.4 273.93-31.45 278.03-32.5 282.68-32.5L282.68-32.5Q287.43-32.5 291.41-31.45 295.38-30.4 298.26-28.23 301.13-26.05 302.71-22.73 304.28-19.4 304.28-14.85L304.28-14.85 277.03-14.85Q277.03-14.85 277.01-14.85 276.98-14.85 276.98-14.85 276.98-14.85 276.98-14.8L276.98-14.8Q276.98-14.05 277.38-13.4 277.78-12.75 278.51-12.28 279.23-11.8 280.31-11.55 281.38-11.3 282.78-11.3ZM282.68-19.85L282.68-19.85Q280.23-19.85 278.63-18.98 277.03-18.1 277.03-16.5L277.03-16.5Q277.03-16.45 277.03-16.43 277.03-16.4 277.03-16.4 277.03-16.4 277.06-16.4 277.08-16.4 277.08-16.4L277.08-16.4 288.23-16.4Q288.28-16.4 288.28-16.43 288.28-16.45 288.28-16.5L288.28-16.5Q288.28-17.3 287.86-17.93 287.43-18.55 286.68-18.98 285.93-19.4 284.91-19.63 283.88-19.85 282.68-19.85Z" opacity="1" transform="matrix(1,0,0,1,0,0)" fill="#000000" class="wordmark-text-0" data-fill-palette-color="primary" id="text-0"></path></svg></g></svg></g></svg></g></svg></g><g></g></svg></g><defs></defs></svg><rect width="395.52" height="47.858832838773495" fill="none" stroke="none" visibility="hidden"></rect></g></svg></g></svg>